<svg xmlns="http://www.w3.org/2000/svg" xmlns:xlink="http://www.w3.org/1999/xlink" xml:space="preserve" version="1.1" style="shape-rendering:geometricPrecision;text-rendering:geometricPrecision;image-rendering:optimizeQuality;" viewBox="0 0 333 416.25" x="0px" y="0px" fill-rule="evenodd" clip-rule="evenodd"><defs><style type="text/css">
   
    .fil0 {fill:black}
   
  </style></defs><g><path class="fil0" d="M103 53l32 32c8,7 8,19 0,26l-2 2 -58 -58 2 -2c7,-8 19,-8 26,0zm178 177l-33 -32c-7,-7 -18,-7 -26,0l-2 2 58 59 3 -3c7,-7 7,-18 0,-26zm-68 -23l-12 12c-32,-17 -70,-55 -87,-87l12 -12 -58 -58 -12 12c-53,52 151,256 203,204l12 -12 -58 -59z"/></g><text x="0" y="348" fill="#000000" font-size="5px" font-weight="bold" font-family="'Helvetica Neue', Helvetica, Arial-Unicode, Arial, Sans-serif">Created by Astutik Icon</text><text x="0" y="353" fill="#000000" font-size="5px" font-weight="bold" font-family="'Helvetica Neue', Helvetica, Arial-Unicode, Arial, Sans-serif">from the Noun Project</text></svg>