<svg xmlns:dc="http://purl.org/dc/elements/1.1/" xmlns:cc="http://creativecommons.org/ns#" xmlns:rdf="http://www.w3.org/1999/02/22-rdf-syntax-ns#" xmlns:svg="http://www.w3.org/2000/svg" xmlns="http://www.w3.org/2000/svg" xmlns:sodipodi="http://sodipodi.sourceforge.net/DTD/sodipodi-0.dtd" xmlns:inkscape="http://www.inkscape.org/namespaces/inkscape" enable-background="new" version="1.1" viewBox="0 0 16.933333 21.1666675" x="0px" y="0px"><svg:g><svg:path style="color:#000000;font-style:normal;font-variant:normal;font-weight:normal;font-stretch:normal;font-size:medium;line-height:normal;font-family:sans-serif;font-variant-ligatures:normal;font-variant-position:normal;font-variant-caps:normal;font-variant-numeric:normal;font-variant-alternates:normal;font-feature-settings:normal;text-indent:0;text-align:start;text-decoration:none;text-decoration-line:none;text-decoration-style:solid;text-decoration-color:#000000;letter-spacing:normal;word-spacing:normal;text-transform:none;writing-mode:lr-tb;direction:ltr;text-orientation:mixed;dominant-baseline:auto;baseline-shift:baseline;text-anchor:start;white-space:normal;shape-padding:0;clip-rule:nonzero;display:inline;overflow:visible;visibility:visible;opacity:1;isolation:auto;mix-blend-mode:normal;color-interpolation:sRGB;color-interpolation-filters:linearRGB;solid-color:#000000;solid-opacity:1;vector-effect:none;fill:#000000;fill-opacity:1;fill-rule:nonzero;stroke:none;stroke-width:0.52916431;stroke-linecap:butt;stroke-linejoin:round;stroke-miterlimit:4;stroke-dasharray:none;stroke-dashoffset:0;stroke-opacity:1;color-rendering:auto;image-rendering:auto;shape-rendering:auto;text-rendering:auto;enable-background:accumulate" d="m 8.4754508,1.5971572 a 0.26460862,0.26460862 0 0 0 -0.026353,5.1e-4 0.26460862,0.26460862 0 0 0 -0.1172898,0.0351 l -1.2908756,0.7643 h 2.8525258 l -1.2919075,-0.7643 a 0.26460862,0.26460862 0 0 0 -0.1261004,-0.0357 z m -5.1355889,1.3286 a 0.26460862,0.26460862 0 0 0 -0.2382308,0.26355 v 3.65145 L 8.4666667,10.021447 13.833792,6.8454072 v -3.6561 a 0.26460862,0.26460862 0 0 0 -0.263551,-0.26355 H 3.3651826 a 0.26460862,0.26460862 0 0 0 -0.025321,0 z m 1.9528367,1.65623 h 6.3164244 a 0.26465,0.26465 0 0 1 0,0.52916 H 5.2926986 a 0.26465,0.26465 0 1 1 0,-0.52916 z m -2.7202342,0.45992 -1.253146,0.74259 1.253146,0.74259 z m 11.7930876,0.002 v 1.48724 l 1.255739,-0.7431 z m -9.0728534,1.05833 h 6.3164244 a 0.26465,0.26465 0 1 1 0,0.52917 H 5.2926986 a 0.26465,0.26465 0 0 1 0,-0.52917 z m -4.2441812,0.13643 v 8.8320198 a 0.26460862,0.26460862 0 0 0 0.2656152,0.26561 H 15.621291 a 0.26460862,0.26460862 0 0 0 0.263525,-0.26561 V 6.2464172 l -2.157492,1.27692 a 0.26460862,0.26460862 0 0 1 -10e-4,5.2e-4 L 8.6015832,10.557267 c -0.021219,0.0126 -0.043947,0.0217 -0.067178,0.0279 a 0.26460862,0.26460862 0 0 1 -0.00206,5.2e-4 c -0.010239,0.003 -0.020611,0.003 -0.031009,0.004 -0.013309,0.002 -0.026405,0.004 -0.039793,0.004 a 0.26460862,0.26460862 0 0 0 0.00413,0 c -0.022595,-8e-5 -0.045085,-0.003 -0.067178,-0.009 a 0.26460862,0.26460862 0 0 0 0.00672,0.002 c -0.00471,-10e-4 -0.00929,-0.002 -0.013943,-0.004 a 0.26460862,0.26460862 0 0 0 0.00516,0.002 c -0.022304,-0.006 -0.044185,-0.0148 -0.064585,-0.0269 z"/></svg:g><text x="0" y="31.933334" fill="#000000" font-size="5px" font-weight="bold" font-family="'Helvetica Neue', Helvetica, Arial-Unicode, Arial, Sans-serif">Created by Larea</text><text x="0" y="36.933334" fill="#000000" font-size="5px" font-weight="bold" font-family="'Helvetica Neue', Helvetica, Arial-Unicode, Arial, Sans-serif">from the Noun Project</text></svg>